# xmcd
#
# Track frame offsets: 
#        150
#        30217
#        44677
#        61542
#        76617
#        106305
#        130300
#        156700
#        177482
#        196627
#
# Disc length: 3027 seconds
#
# Revision: 1
# Processed by: cddbd v1.5.2PL0 Copyright (c) Steve Scherf et al.
# Submitted via: ExactAudioCopy v1.0b3
#
DISCID=770bd10a
DTITLE=Tuan Vu, Son Tuyen - Dua Em Qua Canh Dong Vang
DYEAR=1992
DGENRE=
TTITLE0=Toi van nho
TTITLE1=Tuan Vu - Chieu lang em
TTITLE2=Son Tuyen - Nguoi yeu co don
TTITLE3=Gui nguoi ngan dam
TTITLE4=Son Tuyen - Co lai do ben Ha
TTITLE5=Ruoc tinh ve voi que huong
TTITLE6=Son Tuyen - Than phan
TTITLE7=Tuan Vu - Bai hat nay cho em
TTITLE8=Tinh ca tren lua
TTITLE9=Tuan Vu - Huyen su ca mot nguoi mang ten Quoc
EXTD=
EXTT0=
EXTT1=
EXTT2=
EXTT3=
EXTT4=
EXTT5=
EXTT6=
EXTT7=
EXTT8=
EXTT9=
PLAYORDER=
